<mxfile host="app.diagrams.net" modified="2023-05-10T06:13:38.880Z" agent="Mozilla/5.0 (Windows NT 10.0; Win64; x64) AppleWebKit/537.36 (KHTML, like Gecko) Chrome/112.0.0.0 Safari/537.36" version="21.2.1" etag="VGlSRrFLyyNnFhS9LZot" type="device">
  <diagram id="DxQNmC6oJjpQK-L9WOhz" name="Страница 1">
    <mxGraphModel dx="794" dy="700" grid="1" gridSize="10" guides="1" tooltips="1" connect="1" arrows="1" fold="1" page="1" pageScale="1" pageWidth="827" pageHeight="1169" math="0" shadow="0">
      <root>
        <mxCell id="0" />
        <mxCell id="1" parent="0" />
        <mxCell id="4AY4p1ZTper7ENPkBr_0-8" style="edgeStyle=orthogonalEdgeStyle;rounded=0;orthogonalLoop=1;jettySize=auto;html=1;exitX=0.5;exitY=1;exitDx=0;exitDy=0;dashed=1;endArrow=none;endFill=0;" edge="1" parent="1" source="4AY4p1ZTper7ENPkBr_0-3">
          <mxGeometry relative="1" as="geometry">
            <mxPoint x="350" y="1211" as="targetPoint" />
          </mxGeometry>
        </mxCell>
        <mxCell id="4AY4p1ZTper7ENPkBr_0-3" value="" style="rounded=0;whiteSpace=wrap;html=1;" vertex="1" parent="1">
          <mxGeometry x="290" y="70" width="120" height="60" as="geometry" />
        </mxCell>
        <mxCell id="4AY4p1ZTper7ENPkBr_0-4" value="Actor" style="shape=umlActor;verticalLabelPosition=bottom;verticalAlign=top;html=1;outlineConnect=0;" vertex="1" parent="1">
          <mxGeometry x="100" y="70" width="30" height="60" as="geometry" />
        </mxCell>
        <mxCell id="4AY4p1ZTper7ENPkBr_0-5" value="" style="rounded=0;whiteSpace=wrap;html=1;" vertex="1" parent="1">
          <mxGeometry x="650" y="70" width="120" height="60" as="geometry" />
        </mxCell>
        <mxCell id="4AY4p1ZTper7ENPkBr_0-6" value="" style="rounded=0;whiteSpace=wrap;html=1;" vertex="1" parent="1">
          <mxGeometry x="480" y="70" width="120" height="60" as="geometry" />
        </mxCell>
        <mxCell id="4AY4p1ZTper7ENPkBr_0-7" value="" style="rounded=0;whiteSpace=wrap;html=1;" vertex="1" parent="1">
          <mxGeometry x="110" y="160" width="10" height="1440" as="geometry" />
        </mxCell>
        <mxCell id="4AY4p1ZTper7ENPkBr_0-9" style="edgeStyle=orthogonalEdgeStyle;rounded=0;orthogonalLoop=1;jettySize=auto;html=1;exitX=0.5;exitY=1;exitDx=0;exitDy=0;dashed=1;endArrow=none;endFill=0;" edge="1" parent="1">
          <mxGeometry relative="1" as="geometry">
            <mxPoint x="539.5" y="1211" as="targetPoint" />
            <mxPoint x="539.5" y="130" as="sourcePoint" />
          </mxGeometry>
        </mxCell>
        <mxCell id="4AY4p1ZTper7ENPkBr_0-10" style="edgeStyle=orthogonalEdgeStyle;rounded=0;orthogonalLoop=1;jettySize=auto;html=1;exitX=0.5;exitY=1;exitDx=0;exitDy=0;dashed=1;endArrow=none;endFill=0;" edge="1" parent="1">
          <mxGeometry relative="1" as="geometry">
            <mxPoint x="709.5" y="1211" as="targetPoint" />
            <mxPoint x="709.5" y="130" as="sourcePoint" />
          </mxGeometry>
        </mxCell>
      </root>
    </mxGraphModel>
  </diagram>
</mxfile>
